<?xml version="1.0" standalone="no"?><!DOCTYPE svg PUBLIC "-//W3C//DTD SVG 1.1//EN" "http://www.w3.org/Graphics/SVG/1.1/DTD/svg11.dtd">
<svg t="1678522001403" class="icon" viewBox="0 0 1024 1024" version="1.1" xmlns="http://www.w3.org/2000/svg" p-id="1463" xmlns:xlink="http://www.w3.org/1999/xlink" width="200" height="200">
<path d="M859.78537974 164.38571167l-142.52185822 15.64264297 46.92792893 46.92792893-154.6883583 189.10217286-160.59780121-148.43130113c-10.77604294-10.08081436-27.80914307-10.08081436-38.9328003-0.34761428L173.94238888 480.36709976c-11.81888581 10.77604294-12.86172866 29.19960022-2.08568575 41.01848603 5.56182862 6.25705719 13.55695725 9.38558579 21.55208588 9.38558578 6.95228576 0 13.90457153-2.43330002 19.46640015-7.29990005l216.21608733-195.35923005 163.72632982 151.21221542c5.9094429 5.56182862 13.90457153 7.99512863 21.55208587 7.64751435 7.99512863-0.69522858 15.29502869-4.51898574 20.50924302-10.42842865l170.33100128-208.2209587 38.93280029 38.93280029L859.78537974 164.38571167z m-604.8488617 695.22857666h-69.52285767c-11.47127152 0-20.8568573-9.38558579-20.85685729-20.8568573V602.37971497c0-11.47127152 9.38558579-20.8568573 20.85685729-20.85685731h69.52285767c11.47127152 0 20.8568573 9.38558579 20.8568573 20.85685731v236.37771606c0 11.47127152-9.38558579 20.8568573-20.8568573 20.8568573z" fill="#7dc5eb" p-id="1464"></path>
<path d="M449.60051952 859.61428833h-69.52285768c-11.47127152 0-20.8568573-9.38558579-20.8568573-20.8568573V463.33399963c0-11.47127152 9.38558579-20.8568573 20.8568573-20.85685729h69.52285767c11.47127152 0 20.8568573 9.38558579 20.85685729 20.85685729v375.4234314c0 11.47127152-9.38558579 20.8568573-20.85685729 20.8568573z m194.66400145 0h-69.52285765c-11.47127152 0-20.8568573-9.38558579-20.8568573-20.8568573V567.61828614c0-11.47127152 9.38558579-20.8568573 20.8568573-20.85685731h69.52285766c11.47127152 0 20.8568573 9.38558579 20.8568573 20.85685731v271.13914489c0 11.47127152-9.38558579 20.8568573-20.8568573 20.8568573z m194.66400148 0h-69.52285768c-11.47127152 0-20.8568573-9.38558579-20.8568573-20.8568573V393.81114197c0-11.47127152 9.38558579-20.8568573 20.8568573-20.8568573h69.52285767c11.47127152 0 20.8568573 9.38558579 20.8568573 20.8568573v444.94628906c0 11.47127152-9.38558579 20.8568573-20.8568573 20.8568573z" fill="#7dc5eb" p-id="1465"></path></svg>