<?xml version="1.0" standalone="no"?><!DOCTYPE svg PUBLIC "-//W3C//DTD SVG 1.1//EN" "http://www.w3.org/Graphics/SVG/1.1/DTD/svg11.dtd"><svg t="1678521996734" class="icon" viewBox="0 0 1057 1024" version="1.1" xmlns="http://www.w3.org/2000/svg" p-id="1306" xmlns:xlink="http://www.w3.org/1999/xlink" width="200" height="200"><path d="M522.71470506 816.2307844a280.29360771 280.29360771 0 1 1 280.29360706-280.29360771 280.52158127 280.52158127 0 0 1-280.29360707 280.29360771z m0-492.08113251a211.90151126 211.90151126 0 1 0 211.90151128 211.7875248 212.01549839 212.01549839 0 0 0-211.90151128-211.7875248z" fill="#d4237a" p-id="1307"></path><path d="M220.30765259 416.25100809a34.1960479 34.1960479 0 0 1-34.1960479-34.19604792V300.09843145A113.98682675 113.98682675 0 0 1 300.09843145 186.11160469h81.84254227a34.1960479 34.1960479 0 0 1 0 68.39209643H300.09843145a45.59473096 45.59473096 0 0 0-45.59473033 45.59473033v81.84254227a34.1960479 34.1960479 0 0 1-34.19604853 34.31003437zM825.23574336 416.25100809a34.1960479 34.1960479 0 0 1-34.19604791-34.19604792V300.09843145a45.59473096 45.59473096 0 0 0-45.59473094-45.59473033h-81.95652876a34.1960479 34.1960479 0 0 1 0-68.39209643h81.84254228a113.98682675 113.98682675 0 0 1 113.98682676 113.98682676v81.84254227a34.1960479 34.1960479 0 0 1-34.08206143 34.31003437z" fill="#d4237a" p-id="1308"></path><path d="M634.64976902 570.13322458H488.51865652V424.11609919a34.1960479 34.1960479 0 1 1 68.39209643 0v77.6250296h77.73901607a34.1960479 34.1960479 0 1 1 0 68.39209579z" fill="#d4237a" p-id="1309"></path><path d="M283.45635496 837.88828138a34.1960479 34.1960479 0 0 1-24.16520755-10.03084099 34.1960479 34.1960479 0 0 1 0-48.33041447l79.79077884-79.79077885a34.1960479 34.1960479 0 0 1 48.44440159 48.33041445l-79.79077887 79.79077887a34.1960479 34.1960479 0 0 1-24.27919401 10.03084098zM768.81226422 837.88828138A34.1960479 34.1960479 0 0 1 744.64705667 827.85744039l-79.79077886-79.79077887a34.1960479 34.1960479 0 0 1 48.1024409-49.01433516l79.79077885 79.79077886a34.1960479 34.1960479 0 0 1-24.16520691 58.36125544z" fill="#d4237a" p-id="1310"></path></svg>