<?xml version="1.0" standalone="no"?><!DOCTYPE svg PUBLIC "-//W3C//DTD SVG 1.1//EN" "http://www.w3.org/Graphics/SVG/1.1/DTD/svg11.dtd"><svg t="1678522005440" class="icon" viewBox="0 0 1024 1024" version="1.1" xmlns="http://www.w3.org/2000/svg" p-id="1618" xmlns:xlink="http://www.w3.org/1999/xlink" width="200" height="200"><path d="M64.25791016 532.38886719c0-92.77470703 63.82353516-174.29150391 149.08535156-198.421875C260.53876953 214.37158203 377.45439453 128.56044922 514.20517578 128.56044922c137.82744141 0 251.51660156 85.81113281 298.70859375 205.40742187C900.86679687 358.63525391 962 439.07626953 962 532.38886719c0 114.76318359-92.77734375 208.07753906-210.21855469 208.07753906-21.98935547 0-41.83417969-19.83691406-41.83417969-41.82451172 0-25.20791016 19.84482422-41.83505859 41.83417969-41.83505859 70.78798828 0 127.09775391-55.23486328 127.09775391-124.41884766 0-37.00195313-16.62890625-71.32412109-43.97695313-93.31259766l-7.50146484-6.975c-2.1515625-2.67978516-5.36923828-4.82080078-9.65302734-7.50146484-2.15332031-2.69033203-6.975-2.69033203-9.65478516-4.83310547l-2.67978516 0c-2.15068359-2.67890625-4.83134766-2.67890625-6.97324218-4.82167969l-2.67978516 0c-2.15332031 0-4.83222656-2.69121094-7.51289062-2.69121093-2.14277344 0-4.82255859 0-4.8225586-2.14101563l-6.97412109 0c-2.68154297 0-4.82255859 0-7.51201172-2.67978515l-4.82255859 0-12.33457032 0-2.67890625 0c-2.15244141-8.04023438-4.83222656-13.93857422-4.83222656-21.98847657-2.14189453 0-2.14189453-2.67978516-2.14189453-4.82167968-2.67978516-4.83310547-2.67978516-9.65478516-4.82167969-14.48701172 0-2.67978516-2.69033203-2.67978516-2.69033203-5.35957032-2.14189453-4.82167969-4.8234375-9.65390625-7.50234375-14.47646484l0-4.83222656c-2.1515625-4.82167969-6.975-9.65478516-9.65302734-14.47646485-41.29804688-68.64433594-117.44296875-115.30107422-203.25585938-115.30107421-87.95302734 0-164.09882812 46.65673828-205.39511719 115.30107421l-6.97412109 14.47646485c0 1.61455078-1.07666016 1.61455078-1.60400391 3.21767578l-1.07666015 1.61455078-7.51201172 14.47646484 0 5.35957032-6.96357422 14.48701172 0 4.82167968c-2.69121094 8.04990234-5.37011719 13.94824219-5.37011719 21.98847657l-4.82167968 0-11.79580079 0-5.37011718 0c-2.14189453 2.67978516-4.82167969 2.67978516-6.96357422 2.67978515l-4.83310547 0c-2.14189453 1.61367187-3.21767578 2.14101563-3.75556641 2.14101563-0.53789062 0.53789062-1.06523437 0.53789062-1.6040039 0-2.14189453 0-4.83222656 2.69121094-6.9741211 2.69121093l-4.82167968 0c-2.69121094 2.14277344-4.83222656 2.14277344-7.51201172 4.82167969l-2.67978516 0c-2.14189453 2.14277344-4.83310547 2.14277344-6.975 4.83310547l-2.67978516 0c-2.14189453 2.68066406-4.82167969 4.82167969-7.51201171 7.50146484-4.82167969 2.14189453-6.96357422 4.83222656-9.65390625 6.975-27.34804688 21.98847656-41.28574219 56.31064453-41.28574219 93.31259766 0 69.18398437 56.31064453 124.41884766 124.41708984 124.41884766 25.20703125 0 43.97695312 16.62714844 43.97695313 41.83505859 0 21.98847656-18.76992187 41.82451172-43.97695313 41.82451172C159.72382812 740.46640625 64.25791016 647.15205078 64.25791016 532.38886719L64.25791016 532.38886719zM345.81289062 671.82119141c0-12.33369141 4.82167969-21.45058594 9.65390626-29.49169922l127.096875-139.44111328c8.05078125-8.04023438 19.30869141-12.33457031 31.64238281-12.33457032 12.33457031 0 21.98935547 4.29433594 32.18203125 12.33457032l124.41621094 139.44111328c8.03935547 8.03935547 12.33457031 18.23378906 12.33457031 29.49169922 0 21.98847656-18.76992187 41.29716797-43.97783203 41.29716796-12.33369141 0-21.44882812-6.43535156-29.49960938-14.47646484l-53.61943359-58.46396484 0 210.22822265c0 25.20527344-18.76992187 41.29716797-41.8359375 41.29716797-24.12949219 0-41.29541016-16.09101563-41.29541016-41.29716797L472.91064453 640.17880859l-53.63173828 58.46396485c-8.03935547 8.03935547-19.83515625 14.47646484-32.16972656 14.47646484C365.11982422 713.11748047 345.81289062 693.80791016 345.81289062 671.82119141z" fill="#eae597" p-id="1619"></path></svg>