<svg t="1679318199432" class="icon" viewBox="0 0 1024 1024" version="1.1" xmlns="http://www.w3.org/2000/svg" p-id="1294" width="200" height="200"><path d="M624.5 371.375h-196.875V233.5625c0-11.25-8.4375-22.5-19.6875-25.3125-11.25-2.8125-22.5 0-30.9375 8.4375l-225 278.4375c-8.4375 11.25-8.4375 25.3125 0 36.5625l225 281.25c5.625 5.625 14.0625 11.25 22.5 11.25 2.8125 0 5.625 0 8.4375-2.8125 11.25-2.8125 19.6875-14.0625 19.6875-25.3125v-140.625h196.875c16.875 0 28.125-11.25 28.125-28.125v-225c0-19.6875-11.25-30.9375-28.125-30.9375zM849.5 371.375c-16.875 0-28.125 11.25-28.125 28.125v225c0 16.875 11.25 28.125 28.125 28.125s28.125-11.25 28.125-28.125v-225c0-16.875-11.25-28.125-28.125-28.125zM737 371.375c-16.875 0-28.125 11.25-28.125 28.125v225c0 16.875 11.25 28.125 28.125 28.125s28.125-11.25 28.125-28.125v-225c0-16.875-11.25-28.125-28.125-28.125z" fill="white" p-id="1295"></path></svg>