<?xml version="1.0" standalone="no"?><!DOCTYPE svg PUBLIC "-//W3C//DTD SVG 1.1//EN" "http://www.w3.org/Graphics/SVG/1.1/DTD/svg11.dtd"><svg t="1678521992930" class="icon" viewBox="0 0 1024 1024" version="1.1" xmlns="http://www.w3.org/2000/svg" p-id="1145" xmlns:xlink="http://www.w3.org/1999/xlink" width="80" height="80"><path d="M377.18 266.48S143.045 314.585 181.52 604.25s357.84 274.725 451.485 242.73c93.645-32.04 280.935-143.955 195.66-409.95-45.135-137.115-150.48-173.925-200.655-170.55-50.13 3.33-250.83 0-250.83 0z" fill="#ACACEF" p-id="1146"></path><path d="M410.84 755.09c-60.57-34.515-103.14-93.735-118.26-161.775-28.935-130.23 17.28-266.535 17.28-266.535l23.58-44.775c-65.79 30.24-179.55 113.535-151.875 322.29 38.475 289.71 357.84 274.725 451.485 242.73 39.96-13.68 97.02-41.94 142.605-90.495-147.465 78.525-281.25 46.17-364.815-1.44z" fill="#9E9AEA" p-id="1147"></path><path d="M511.91 876.995c-66.645 0-145.035-12.96-211.185-53.955-75.015-46.485-119.61-119.475-132.57-217.035C147.5 450.53 204.47 362.87 255.905 316.7c55.8-50.085 116.01-62.91 118.53-63.45 0.945-0.18 1.935-0.315 2.925-0.27 2.025 0.045 200.655 3.285 249.705 0.045 53.73-3.6 151.875 33.21 202.68 149.22 3.015 6.84-0.135 14.805-6.93 17.775-6.84 3.015-14.805-0.135-17.775-6.93-45.225-103.275-130.14-136.125-176.175-133.11-48.33 3.24-229.68 0.405-250.335 0.045-8.685 2.115-59.445 15.795-105.525 57.6-67.095 60.84-93.42 149.985-78.165 264.915 11.835 89.145 52.2 155.61 120.015 197.64 110.025 68.175 261.54 51.975 313.74 34.11 43.83-14.985 259.29-102.69 196.785-359.01-1.755-7.245 2.655-14.535 9.9-16.335 7.29-1.8 14.535 2.7 16.335 9.9 68.04 279.09-166.59 374.625-214.29 390.96-25.875 8.82-71.865 17.19-125.415 17.19z" fill="#000F04" p-id="1148"></path><path d="M470.87 254.33c-26.46-24.84-133.65-112.59-209.565 16.11-7.515 12.735-4.23 29.115 7.83 37.71 27.27 19.485 63.72 24.255 82.485 25.38 4.905 0.315 7.65 5.76 4.95 9.81-11.925 18.135-31.23 60.66 1.98 114.84 6.165 10.08 17.955 15.435 29.565 13.23 72.945-13.86 94.275-36.54 111.6-69.435 2.475-4.725 9-5.265 12.375-1.17 29.07 35.28 61.065 61.02 140.67 42.57 11.385-2.655 20.115-12.06 21.69-23.625 6.57-48.105-6.48-86.805-29.655-106.515-4.275-3.645-2.34-10.53 3.15-11.745 19.98-4.41 37.17-14.67 48.735-26.73 10.125-10.575 10.08-27.225 0.36-38.16-36.405-40.95-128.655-92.79-214.92 16.92-2.745 3.555-7.965 3.87-11.25 0.81z" fill="#BFE5BD" p-id="1149"></path><path d="M647.945 301.58c-119.655-9.225-103.545-70.965-72.585-111.735-0.225 0.045-0.45 0.09-0.72 0.135-15.165 3.78-28.035 9-38.925 14.94-13.005 7.605-26.19 18.09-39.285 32.085-11.655 14.265-15.615 25.785-15.615 25.785s-1.35-2.655-4.14-6.345c-2.025 0.135-4.14-0.54-5.76-2.07a231.75 231.75 0 0 0-22.14-18.36c-3.96-1.395-8.28-2.43-13.05-2.925-90.81 80.37-147.96 62.865-176.4 41.535-4.725 11.97-0.99 25.92 9.81 33.615 27.27 19.485 63.72 24.255 82.485 25.38 4.905 0.315 7.65 5.76 4.95 9.81-6.705 10.17-15.705 27.99-16.47 51.255 47.835-73.35 112.23-79.335 123.255-64.71 40.95 59.265-65.61 139.545-65.7 139.635 65.34-13.995 85.545-36.09 102.105-67.5 2.475-4.725 9-5.265 12.375-1.17 19.395 23.49 40.095 42.75 75.24 47.52 5.13 0.18 9.855 0.54 13.905 1.125-47.7-13.41-94.455-71.865-81.09-112.005s131.265-17.64 131.265-17.64c-2.115-2.34-4.32-4.59-6.66-6.57-4.32-3.69-2.34-10.62 3.15-11.79z" fill="#A2DD9E" p-id="1150"></path><path d="M382.985 485.495c-14.4 0-28.215-7.56-35.955-20.16-6.66-10.845-11.79-21.96-15.165-33.03-1.395-4.5-2.52-9.09-3.375-13.635a13.5 13.5 0 1 1 26.55-4.95c0.675 3.51 1.53 7.11 2.61 10.62 2.745 8.91 6.93 17.955 12.42 26.91 3.285 5.355 9.54 8.19 15.525 7.02 71.325-13.545 87.885-35.37 102.195-62.46a20.745 20.745 0 0 1 16.335-11.025 21.015 21.015 0 0 1 18.405 7.56c25.56 31.005 52.785 55.26 127.215 37.98 5.985-1.395 10.575-6.345 11.385-12.285 5.535-40.41-4.05-76.59-25.02-94.41a20.0835 20.0835 0 0 1-6.48-20.205 20.304 20.304 0 0 1 15.48-15.03c16.065-3.555 31.32-11.88 41.895-22.905 5.13-5.355 5.13-14.085 0-19.845-19.71-22.14-54.9-45.36-94.41-44.19-35.505 1.08-69.075 21.42-99.765 60.48a21.087 21.087 0 0 1-14.94 7.965 21.285 21.285 0 0 1-16.11-5.67c-13.86-13.005-62.91-54.945-112.635-47.835-29.025 4.14-54.63 24.66-76.05 60.975-4.005 6.84-2.295 15.345 4.05 19.89 24.39 17.415 57.735 21.825 75.42 22.905 7.065 0.45 13.41 4.635 16.56 10.935 3.15 6.3 2.7 13.905-1.17 19.8-3.15 4.77-5.85 9.9-8.01 15.255a13.4865 13.4865 0 0 1-17.595 7.425 13.4865 13.4865 0 0 1-7.425-17.595c1.35-3.375 2.88-6.66 4.59-9.9-21.645-2.43-53.055-9.045-78.075-26.91-17.82-12.69-22.77-36.585-11.61-55.575 25.785-43.74 57.915-68.625 95.49-73.98 55.89-7.965 106.965 29.835 130.32 50.67 34.875-42.39 73.935-64.53 116.19-65.835 48.69-1.485 91.665 26.55 115.425 53.235 14.445 16.245 14.13 41.04-0.675 56.475-11.79 12.285-27.18 21.825-44.19 27.45 22.185 25.245 31.725 65.34 25.605 110.07-2.34 17.01-15.21 31.05-32.04 34.965-83.61 19.35-120.33-8.01-148.455-40.455C487.88 449.405 460.385 471.5 390.635 484.775c-2.565 0.495-5.13 0.72-7.65 0.72z" fill="#000F04" p-id="1151"></path><path d="M512.045 136.025S453.005 202.895 444.05 279.845c-0.54 10.575 16.155 27.855 50.175 15.615 13.365-4.995 11.16-22.86 11.16-37.35s28.98-98.28 43.47-113.265c-11.7-8.82-36.81-8.82-36.81-8.82z" fill="#A2DD9E" p-id="1152"></path><path d="M472.4 313.19c-13.995 0-23.265-4.86-28.44-8.685-8.865-6.57-13.815-16.065-13.365-25.38 0-0.27 0.045-0.585 0.09-0.855C440 198.08 499.445 129.95 501.965 127.07c2.565-2.925 6.255-4.545 10.125-4.545 4.95 0 30.375 0.54 44.955 11.565 3.105 2.34 5.04 5.895 5.31 9.72s-1.08 7.65-3.78 10.44c-11.475 11.835-39.33 91.215-39.69 103.905 0 1.665 0.045 3.42 0.045 5.22 0.27 14.715 0.675 36.99-19.98 44.73-10.215 3.69-19.08 5.085-26.55 5.085z m-14.76-32.985c0.36 0.765 1.53 2.34 4.14 3.735 3.735 1.98 12.375 4.41 27.855-1.17 2.61-0.99 2.43-12.645 2.295-18.9-0.045-1.935-0.09-3.87-0.09-5.76 0-13.77 19.755-75.06 36.765-106.83-3.465-0.675-7.11-1.17-10.485-1.44-12.915 16.155-53.1 70.515-60.48 130.365zM651.455 748.205a13.5 13.5 0 0 1-6.255-25.47c60.435-31.5 94.95-79.515 102.6-142.65 0.9-7.38 7.605-12.69 15.03-11.79 7.38 0.9 12.69 7.605 11.79 15.03-6.03 49.86-31.23 118.665-116.91 163.35-2.025 1.035-4.14 1.53-6.255 1.53zM760.22 531.62c-6.615 0-12.375-4.86-13.32-11.565l-2.79-19.26a13.5 13.5 0 1 1 26.73-3.87l2.79 19.26a13.5 13.5 0 0 1-13.41 15.435z" fill="#000F04" p-id="1153"></path></svg>