<svg t="1679224236398" class="icon" viewBox="0 0 1024 1024" version="1.1" xmlns="http://www.w3.org/2000/svg" p-id="1082" width="200" height="200"><path d="M212.00000029 249.49999971m-56.25 0a56.25 56.25 0 1 0 112.5 0 56.25 56.25 0 1 0-112.5 0Z" p-id="1083"></path><path d="M212.00000029 512m-56.25 0a56.25 56.25 0 1 0 112.5 0 56.25 56.25 0 1 0-112.5 0Z" p-id="1084"></path><path d="M212.00000029 774.50000029m-56.25 0a56.25 56.25 0 1 0 112.5 0 56.25 56.25 0 1 0-112.5 0Z" p-id="1085"></path><path d="M849.5 746.37500029H380.75000029c-15.00000029 0-28.125 13.12499971-28.125 28.125s13.12499971 28.125 28.125 28.125h468.74999971c15.00000029 0 28.125-13.12499971 28.125-28.125s-13.12499971-28.125-28.125-28.125zM380.75000029 277.62499971h468.74999971c15.00000029 0 28.125-13.12499971 28.125-28.125s-13.12499971-28.125-28.125-28.125H380.75000029c-15.00000029 0-28.125 13.12499971-28.125 28.125s13.12499971 28.125 28.125 28.125zM849.5 483.875H380.75000029c-15.00000029 0-28.125 13.12499971-28.125 28.125s13.12499971 28.125 28.125 28.125h468.74999971c15.00000029 0 28.125-13.12499971 28.125-28.125s-13.12499971-28.125-28.125-28.125z" p-id="1086"></path></svg>