<svg t="1679402074807" class="icon" viewBox="0 0 1024 1024" version="1.1" xmlns="http://www.w3.org/2000/svg" p-id="1687" width="200" height="200"><path d="M864.763 444.871l-49.326-217.272c-2.529-11.105-11.328-19.957-22.404-22.547l-219.38-51.429c-10.17-2.379-20.661 0.608-28.051 7.998L82.196 625.024c-11.697 11.696-11.697 30.729 0 42.426l268.681 268.682 0.006 0.006c5.666 5.667 13.199 8.787 21.213 8.787 8.017 0 15.552-3.123 21.213-8.787l463.402-463.402c7.342-7.335 10.352-17.756 8.052-27.865zM372.096 878.155L140.179 646.237l434.789-434.789 189.461 44.415 42.547 187.412-434.88 434.88z" p-id="1688"></path><path d="M689.571 330.531m-26.249 0a26.249 26.249 0 1 0 52.498 0 26.249 26.249 0 1 0-52.498 0Z" p-id="1689"></path></svg>