<svg t="1679225202644" class="icon" viewBox="0 0 1024 1024" version="1.1" xmlns="http://www.w3.org/2000/svg" p-id="1174" width="200" height="200"><path d="M896 85.333333H128a85.333333 85.333333 0 0 0-85.333333 85.333334v512l0.106666 4.266666A85.333333 85.333333 0 0 0 128 768h85.333333v128l0.128 3.306667c2.56 35.776 46.613333 52.949333 72.704 26.88L444.330667 768H896a85.333333 85.333333 0 0 0 85.333333-85.333333V170.666667a85.333333 85.333333 0 0 0-85.333333-85.333334zM128 170.666667h768v512H426.666667l-3.754667 0.170666a42.666667 42.666667 0 0 0-26.410667 12.330667L298.666667 792.96V725.333333a42.666667 42.666667 0 0 0-42.666667-42.666666H128V170.666667z" fill="#000000" p-id="1175"></path><path d="M618.666667 256a42.666667 42.666667 0 0 1 3.2 85.226667L618.666667 341.333333H256a42.666667 42.666667 0 0 1-3.2-85.226666L256 256h362.666667zM426.666667 426.666667a42.666667 42.666667 0 0 1 3.2 85.226666L426.666667 512h-170.666667a42.666667 42.666667 0 0 1-3.2-85.226667L256 426.666667h170.666667z" fill="#000000" p-id="1176"></path></svg>