<?xml version="1.0" standalone="no"?><!DOCTYPE svg PUBLIC "-//W3C//DTD SVG 1.1//EN" "http://www.w3.org/Graphics/SVG/1.1/DTD/svg11.dtd"><svg t="1678521986531" class="icon" viewBox="0 0 1024 1024" version="1.1" xmlns="http://www.w3.org/2000/svg" p-id="989" xmlns:xlink="http://www.w3.org/1999/xlink" width="200" height="200"><path d="M512.59326172 643.26904297c74.55322266 0 132.96972656-42.20068359 132.96972656-96.10839844s-58.41650391-96.10839844-132.96972656-96.10839844-132.96972656 42.20068359-132.96972656 96.10839844 58.41650391 96.10839844 132.96972656 96.10839844z m0-160.57617188c54.93603516 0 101.32910156 29.50488281 101.32910156 64.46777344s-46.39306641 64.46777344-101.32910156 64.46777344-101.32910156-29.50488281-101.32910156-64.46777344 46.43261719-64.46777344 101.32910156-64.46777344z" fill="#7B6BF2" p-id="990"></path><path d="M640.85644531 630.3359375a15.81240234 15.81240234 0 0 0-21.59472656 5.85351563c-15.22705078 26.578125-59.08886719 45.12744141-106.62890625 45.1274414-48.37060547 0-92.43017578-18.94482422-107.18261719-46.07666016a15.8203125 15.8203125 0 0 0-21.43652343-6.36767578 15.8203125 15.8203125 0 0 0-6.36767579 21.43652344c20.32910156 37.45458984 74.59277344 62.60888672 134.98681641 62.60888672 60.19628906 0 112.83837891-23.96777344 134.07714844-61.02685547 4.35058594-7.51464844 1.70068359-17.20458984-5.85351563-21.55517578zM463.66894531 583.27050781c15.97851563 0 28.00195313-18.43066406 28.00195313-42.83349609s-12.06298828-42.83349609-28.00195313-42.8334961-28.00195313 18.43066406-28.00195312 42.8334961 12.0234375 42.83349609 28.00195312 42.83349609z m0-60.78955078c1.77978516 2.64990234 4.27148438 8.66162109 4.27148438 17.95605469s-2.49169922 15.30615234-4.27148438 17.95605469c-1.77978516-2.64990234-4.27148438-8.66162109-4.27148437-17.95605469s2.49169922-15.34570312 4.27148437-17.95605469zM560.7265625 583.27050781c15.97851563 0 28.00195313-18.43066406 28.00195313-42.83349609s-12.06298828-42.83349609-28.00195313-42.8334961c-15.97851563 0-28.04150391 18.43066406-28.04150391 42.8334961s12.06298828 42.83349609 28.04150391 42.83349609z m0-60.78955078c1.77978516 2.64990234 4.27148438 8.66162109 4.27148438 17.95605469s-2.49169922 15.30615234-4.27148438 17.95605469c-1.77978516-2.64990234-4.31103516-8.66162109-4.31103516-17.95605469s2.53125-15.34570312 4.31103516-17.95605469zM405.64794922 440.88769531c0-26.81542969-21.83203125-48.64746094-48.64746094-48.64746093s-48.64746094 21.83203125-48.64746094 48.64746093 21.83203125 48.64746094 48.64746094 48.64746094 48.64746094-21.83203125 48.64746094-48.64746094z m-48.64746094 17.00683594c-9.37353516 0-17.00683594-7.63330078-17.00683594-17.00683594s7.63330078-17.00683594 17.00683594-17.00683593 17.00683594 7.63330078 17.00683594 17.00683593-7.63330078 17.00683594-17.00683594 17.00683594zM668.9375 392.24023437c-26.81542969 0-48.64746094 21.83203125-48.64746094 48.64746094s21.83203125 48.64746094 48.64746094 48.64746094 48.64746094-21.83203125 48.64746094-48.64746094-21.83203125-48.64746094-48.64746094-48.64746093z m0 65.65429688c-9.37353516 0-17.00683594-7.63330078-17.00683594-17.00683594s7.63330078-17.00683594 17.00683594-17.00683594 17.00683594 7.63330078 17.00683594 17.00683594-7.63330078 17.00683594-17.00683594 17.00683594z" fill="#7B6BF2" p-id="991"></path><path d="M867.83837891 241.19580078c-7.27734375-24.32373047-26.26171875-36.18896484-50.78320313-31.71972656-3.67822266 0.67236328-6.68408203 1.62158203-10.87646484 2.92675781-3.99462891 1.265625-9.4921875 2.96630859-18.62841797 5.41845703-21.75292969 5.73486328-32.47119141 0.59326172-50.22949219-7.91015625-6.13037109-2.92675781-13.05175781-6.24902344-20.92236328-9.25488281-35.12109375-13.32861328-51.77197266 1.93798828-61.69921875 11.03466797-1.06787109 0.98876953-2.09619141 1.93798828-3.1640625 2.84765625-2.13574219 1.81933594-7.47509766 6.44677734-30.77050781 35.51660156a301.99790039 301.99790039 0 0 0-53.15625-21.08056641c-44.09912109-12.85400391-91.59960938-10.91601563-133.68164063 5.4975586-9.68994141 3.75732422-20.17089844 8.46386719-31.16601562 14.19873047-22.34619141-27.84375-27.60644531-32.35253906-29.66308594-34.13232422-1.06787109-0.90966797-2.13574219-1.85888672-3.1640625-2.84765625-9.96679688-9.09667969-26.61767578-24.36328125-61.69921875-11.03466797-7.87060547 3.00585938-14.79199219 6.328125-20.92236328 9.25488281-17.75830078 8.50341797-28.4765625 13.64501953-50.11083985 7.94970703-9.21533203-2.49169922-14.71289063-4.19238281-18.70751953-5.45800781-4.15283203-1.30517578-7.19824219-2.25439453-10.83691406-2.92675781-24.52148438-4.46923828-43.50585938 7.39599609-50.82275391 31.71972656-1.85888672 6.13037109-4.62744141 13.44726563-7.55419921 21.19921875-8.81982422 23.25585938-19.77539063 52.20703125-16.76953125 79.06201172 0.71191406 6.40722656 2.92675781 25.86621094 19.1821289 35.08154297 5.61621094 3.1640625 11.74658203 4.58789063 18.50976563 4.58789062 6.24902344 0 13.01220703-1.265625 20.28955078-3.3618164 3.08496094 31.44287109 11.98388672 68.26464844 34.29052734 97.61132812-19.22167969 57.94189453-24.046875 116.16064453-14.23828125 173.98388672 11.31152344 66.72216797 51.65332031 117.10986328 119.91796875 149.73925781 67.63183594 32.35253906 146.57519531 39.11572266 200.87841797 39.11572266 145.66552734 0 242.92089844-82.10742188 265.42529297-140.36572266 28.67431641-74.19726563 30.13769531-149.30419922 4.46923828-224.25292968 21.27832031-29.03027344 29.86083984-65.02148438 32.86669922-95.79199219 7.27734375 2.13574219 14.04052734 3.36181641 20.28955078 3.3618164 6.76318359 0 12.93310547-1.38427734 18.50976563-4.58789062 16.25537109-9.21533203 18.47021484-28.67431641 19.1821289-35.08154297 3.04541016-26.81542969-7.94970703-55.76660156-16.76953125-79.06201172-2.88720703-7.79150391-5.65576172-15.10839844-7.47509765-21.23876953zM340.58691406 291.50439453l-4.74609375 4.27148438c-2.01708984 1.85888672-3.99462891 3.75732422-6.01171875 5.65576171-1.46337891 1.42382813-2.88720703 2.80810547-4.31103515 4.27148438-2.05664063 2.05664063-4.11328125 4.19238281-6.16992188 6.36767578-1.14697266 1.22607422-2.33349609 2.49169922-3.48046875 3.75732422-2.21484375 2.41259766-4.4296875 4.90429688-6.60498047 7.47509766l-2.25439453 2.61035156c-2.49169922 2.96630859-4.94384766 6.05126953-7.39599609 9.17578125-0.67236328 0.83056641-1.30517578 1.66113281-1.93798828 2.49169922-2.45214844 3.20361328-4.86474609 6.48632813-7.27734375 9.84814453l-1.66113282 2.37304687c-2.41259766 3.44091797-4.78564453 6.9609375-7.1586914 10.59960938-0.43505859 0.6328125-0.83056641 1.30517578-1.22607422 1.93798828-2.41259766 3.796875-4.78564453 7.63330078-7.11914063 11.62792969-0.03955078 0.03955078-0.03955078 0.07910156-0.07910156 0.11865234l-0.90966797 1.50292969c-7.27734375 11.66748047-20.60595703 33.06445313-33.45996093 62.41113281-11.58837891-23.21630859-16.09716797-49.91308594-17.5209961-72.45703125 4.31103516-1.97753906 8.66162109-3.91552734 13.13085938-5.89306641 39.39257813-17.52099609 83.92675781-37.3359375 107.30126953-74.35546875 0.35595703-0.11865234 0.75146484-0.23730469 1.22607422-0.35595703 0.11865234-0.03955078 0.23730469-0.03955078 0.35595703-0.07910156 0.35595703-0.07910156 0.79101563-0.15820313 1.22607422-0.23730469 0.15820313-0.03955078 0.27685547-0.03955078 0.43505859-0.07910156 0.51416016-0.07910156 1.02832031-0.15820313 1.58203125-0.19775391 0.11865234 0 0.23730469-0.03955078 0.31640625-0.03955078 0.71191406-0.07910156 1.50292969-0.11865234 2.29394531-0.1977539-0.79101563 0.6328125-1.54248047 1.34472656-2.29394531 1.97753906l-6.24902344 5.41845703zM167.27539062 348.97167969c-0.03955078 0-2.25439453-1.66113281-3.32226562-11.07421875-2.17529297-19.22167969 6.88183594-43.14990234 14.91064453-64.27001953 3.12451172-8.26611328 6.09082031-16.09716797 8.26611328-23.29541016 2.45214844-8.14746094 5.6953125-10.24365234 10.04589844-10.24365234 1.46337891 0 3.04541016 0.23730469 4.78564453 0.55371093 1.70068359 0.31640625 3.40136719 0.83056641 7.07958985 1.97753907 3.99462891 1.265625 10.08544922 3.12451172 19.97314453 5.81396484 32.98535156 8.70117188 52.80029297-0.79101563 71.98242187-9.96679688 5.81396484-2.80810547 11.82568359-5.65576172 18.47021485-8.18701171 16.88818359-6.40722656 20.96191406-2.64990234 29.109375 4.78564453 1.30517578 1.18652344 2.61035156 2.37304688 3.95507812 3.52001953 0.94921875 0.79101563 4.11328125 3.87597656 13.32861328 14.91064453-0.07910156 0-0.11865234 0-0.1977539-0.03955078-0.23730469-0.03955078-0.47460938-0.03955078-0.71191407-0.07910156-1.46337891-0.19775391-2.88720703-0.35595703-4.35058593-0.51416016l-1.50292969-0.11865234c-1.46337891-0.11865234-2.96630859-0.19775391-4.39013672-0.27685547-0.23730469 0-0.47460938-0.03955078-0.75146484-0.03955078-1.50292969-0.03955078-3.00585938-0.03955078-4.46923829 0-0.51416016 0-1.02832031 0.03955078-1.54248046 0.03955078-1.22607422 0.03955078-2.41259766 0.11865234-3.5991211 0.23730468-0.35595703 0.03955078-0.75146484 0.03955078-1.10742187 0.07910157-1.46337891 0.15820313-2.84765625 0.35595703-4.2319336 0.59326172l-1.30517578 0.23730468c-1.06787109 0.19775391-2.13574219 0.47460938-3.1640625 0.71191407-0.35595703 0.11865234-0.75146484 0.19775391-1.10742187 0.27685546-1.30517578 0.39550781-2.53125 0.79101563-3.75732422 1.265625-0.31640625 0.11865234-0.59326172 0.27685547-0.90966797 0.39550782-0.94921875 0.39550781-1.8984375 0.87011719-2.76855469 1.34472656a28.40932617 28.40932617 0 0 0-4.07373047 2.57080078c-0.15820313 0.11865234-0.31640625 0.27685547-0.47460937 0.39550781-0.83056641 0.67236328-1.62158203 1.38427734-2.3334961 2.13574219-0.23730469 0.23730469-0.47460938 0.47460938-0.67236328 0.71191406-0.83056641 0.90966797-1.58203125 1.85888672-2.29394531 2.88720703-0.11865234 0.15820313-0.19775391 0.35595703-0.31640625 0.51416016-17.83740234 29.86083984-58.49560547 47.93554688-94.36816406 63.87451172-5.18115234 2.29394531-10.32275391 4.58789063-15.30615235 6.88183594-0.15820313 0.07910156-0.35595703 0.15820313-0.51416015 0.23730468-2.13574219 0.98876953-4.19238281 1.8984375-6.20947266 2.76855469-25.15429688 10.91601563-31.16601563 8.93847656-32.15478515 8.38476563z m599.98535157 337.40771484c-18.74707031 48.44970703-106.66845703 120.15527344-235.92041016 120.15527344-78.78515625 0-264.75292969-15.8203125-289.63037109-162.51416016-14.08007813-83.21484375 5.14160156-167.81396484 57.26953125-251.4243164 0.03955078-0.07910156 0.07910156-0.11865234 0.11865234-0.19775391l1.06787109-1.70068359 0.23730469-0.35595703c2.96630859-5.10205078 6.05126953-10.04589844 9.25488281-14.91064454l0.94921875-1.42382812c2.92675781-4.39013672 5.93261719-8.66162109 9.01757813-12.85400391l1.34472656-1.81933593c3.1640625-4.19238281 6.40722656-8.30566406 9.72949219-12.30029297 0.59326172-0.71191406 1.18652344-1.38427734 1.77978516-2.09619141 3.00585938-3.52001953 6.05126953-6.9609375 9.17578125-10.28320312 0.87011719-0.94921875 1.74023438-1.85888672 2.61035156-2.76855469 3.1640625-3.32226563 6.44677734-6.56542969 9.76904297-9.68994141a298.44228516 298.44228516 0 0 1 12.37939453-11.11376953c1.30517578-1.06787109 2.57080078-2.17529297 3.87597656-3.20361328 3.24316406-2.64990234 6.56542969-5.22070313 9.92724609-7.71240234a272.33481445 272.33481445 0 0 1 14.59423829-10.16455079c1.14697266-0.75146484 2.25439453-1.46337891 3.3618164-2.17529296 2.25439453-1.42382813 4.50878906-2.80810547 6.84228516-4.19238282 14.35693359-8.46386719 28.08105469-14.87109375 40.34179687-19.65673828 20.05224609-7.83105469 41.56787109-11.74658203 63.24169922-11.74658203 16.80908203 0 33.73681641 2.37304688 50.11083985 7.15869141a272.8331543 272.8331543 0 0 1 57.90234375 24.40283203c0.11865234 0.07910156 0.23730469 0.19775391 0.39550781 0.27685547 3.28271484 1.85888672 6.44677734 3.796875 9.57128906 5.73486328 52.48388672 32.78759766 84.63867188 77.63818359 100.57763672 104.65136719 0.11865234 0.19775391 0.23730469 0.39550781 0.31640625 0.55371093 0.98876953 1.70068359 1.93798828 3.32226563 2.80810547 4.90429688 0.15820313 0.23730469 0.27685547 0.47460938 0.43505859 0.71191406 15.78076172 24.91699219 28.51611328 50.30859375 37.81054688 75.46289063 0.27685547 0.75146484 0.6328125 1.46337891 0.98876953 2.13574218 25.51025391 69.76757813 24.6796875 138.46728516-2.25439453 208.15576172z m6.20947265-275.51074219c-0.27685547-0.51416016-0.59326172-1.02832031-0.87011718-1.54248046-1.93798828-3.52001953-3.91552734-7.00048828-5.93261719-10.48095704-0.55371094-0.90966797-1.06787109-1.81933594-1.62158203-2.7290039-2.37304688-3.99462891-4.78564453-7.98925781-7.31689453-12.0234375-15.10839844-26.81542969-42.08203125-66.08935547-84.32226563-99.90527344h0.27685547c0.75146484 0 1.50292969 0.03955078 2.17529297 0.07910156 0.23730469 0 0.47460938 0.03955078 0.71191406 0.03955078 0.83056641 0.03955078 1.62158203 0.11865234 2.33349609 0.23730469 0.11865234 0 0.23730469 0.03955078 0.35595704 0.03955078 0.59326172 0.07910156 1.14697266 0.19775391 1.66113281 0.27685547l0.47460937 0.11865235c0.55371094 0.11865234 1.06787109 0.27685547 1.50292969 0.43505859 23.37451172 37.05908203 67.90869141 56.87402344 107.30126953 74.35546875l11.46972656 5.14160156c0.55371094 0.23730469 1.14697266 0.51416016 1.7006836 0.75146485-1.38427734 22.10888672-5.73486328 48.25195313-16.84863281 71.19140625 0-0.03955078-0.03955078-0.07910156-0.03955079-0.07910157-3.99462891-8.70117188-8.30566406-17.32324219-13.01220703-25.90576172z m87.20947266-73.01074218c-1.06787109 9.41308594-3.28271484 11.07421875-3.32226563 11.07421875-0.98876953 0.55371094-7.00048828 2.57080078-32.2734375-8.30566407-2.01708984-0.87011719-4.07373047-1.77978516-6.24902343-2.76855468-5.14160156-2.33349609-10.40185547-4.70654297-15.78076172-7.07958985-35.87255859-15.93896484-76.53076172-34.01367188-94.36816406-63.87451172-0.11865234-0.15820313-0.19775391-0.35595703-0.31640625-0.51416015-0.79101563-1.18652344-1.66113281-2.29394531-2.64990235-3.32226563-0.31640625-0.35595703-0.71191406-0.6328125-1.06787109-0.94921875-0.71191406-0.6328125-1.38427734-1.30517578-2.13574219-1.8984375-0.47460938-0.35595703-0.98876953-0.6328125-1.46337891-0.94921875-0.75146484-0.47460938-1.46337891-0.98876953-2.25439453-1.42382812-0.55371094-0.31640625-1.18652344-0.55371094-1.77978515-0.83056641-0.79101563-0.35595703-1.58203125-0.75146484-2.45214844-1.06787109-0.6328125-0.23730469-1.34472656-0.43505859-2.01708984-0.67236328-0.87011719-0.27685547-1.74023438-0.55371094-2.61035157-0.79101563-0.71191406-0.19775391-1.46337891-0.35595703-2.21484375-0.51416015-0.90966797-0.19775391-1.85888672-0.39550781-2.80810547-0.55371094-0.79101563-0.11865234-1.58203125-0.23730469-2.37304687-0.31640625-0.98876953-0.11865234-1.93798828-0.23730469-2.96630859-0.31640625-0.83056641-0.07910156-1.66113281-0.11865234-2.49169922-0.15820313l-3.08496094-0.11865234c-0.35595703 0-0.67236328-0.03955078-0.98876953-0.03955078-0.43505859 0-0.87011719 0.03955078-1.30517578 0.03955078-1.46337891 0.03955078-2.96630859 0.07910156-4.50878907 0.15820312-0.71191406 0.03955078-1.42382813 0.07910156-2.17529296 0.15820313-1.81933594 0.15820313-3.59912109 0.35595703-5.45800782 0.59326172l-0.98876953 0.11865234c9.25488281-11.11376953 12.45849609-14.19873047 13.40771485-14.98974609 1.30517578-1.14697266 2.61035156-2.33349609 3.95507812-3.52001953 8.14746094-7.47509766 12.26074219-11.19287109 29.109375-4.78564453 6.64453125 2.53125 12.65625 5.41845703 18.47021484 8.18701171 19.14257813 9.17578125 38.99707031 18.66796875 72.06152344 9.96679688 9.84814453-2.64990234 15.89941406-4.54833984 19.89404297-5.81396484 3.67822266-1.14697266 5.37890625-1.66113281 7.07958984-1.97753907 6.84228516-1.265625 11.54882813-1.22607422 14.83154297 9.68994141 2.17529297 7.19824219 5.14160156 15.02929688 8.26611328 23.29541016 8.14746094 21.12011719 17.20458984 45.04833984 15.02929688 64.27001953z" fill="#7B6BF2" p-id="992"></path></svg>